<?xml version="1.0" standalone="no"?>
<!DOCTYPE svg PUBLIC "-//W3C//DTD SVG 20010904//EN"
 "http://www.w3.org/TR/2001/REC-SVG-20010904/DTD/svg10.dtd">
<svg version="1.0" xmlns="http://www.w3.org/2000/svg"
 width="500.000000pt" height="500.000000pt" viewBox="0 0 500.000000 500.000000"
 preserveAspectRatio="xMidYMid meet">
<metadata>
Created by potrace 1.11, written by Peter Selinger 2001-2013
</metadata>
<g transform="translate(0.000000,500.000000) scale(0.100000,-0.100000)"
fill="#000000" stroke="none">
<path d="M1566 3768 c-279 -26 -527 -158 -677 -360 l-59 -80 0 215 0 214 -149
0 c-102 0 -151 -3 -153 -11 -2 -6 -4 -537 -3 -1181 l0 -1170 160 -3 160 -2 1
682 c0 482 4 702 12 748 7 36 14 78 17 94 10 53 70 191 108 248 140 210 362
321 642 322 163 0 237 -14 353 -70 163 -79 274 -232 318 -438 22 -105 23 -113
23 -878 l1 -708 160 0 160 0 1 663 c0 364 3 682 5 707 7 67 32 188 44 210 6
11 8 20 5 20 -2 0 7 26 21 58 94 213 283 369 506 417 80 18 256 24 343 13 198
-26 375 -149 459 -320 35 -70 72 -195 80 -268 2 -19 4 -365 5 -767 l1 -733
160 0 161 0 -4 793 c-1 435 -6 806 -10 822 -4 17 -12 55 -18 85 -22 111 -83
251 -147 340 -45 63 -161 168 -230 209 -208 124 -462 162 -775 116 -257 -37
-529 -207 -665 -416 l-40 -60 -37 68 c-169 309 -509 462 -939 421z"/>
</g>
</svg>
